<svg width="16" height="16" viewBox="0 0 16 16" fill="none" xmlns="http://www.w3.org/2000/svg">
<g id="material-symbols:keyboard-double-arrow-right-rounded">
<path id="Vector" d="M3.79997 11.5333C3.67775 11.4111 3.61664 11.2555 3.61664 11.0667C3.61664 10.8778 3.67775 10.7222 3.79997 10.6L6.3833 7.99999L3.79997 5.39999C3.67775 5.27777 3.61397 5.12488 3.60864 4.94133C3.60286 4.75821 3.66664 4.59999 3.79997 4.46666C3.92219 4.34444 4.07775 4.28333 4.26664 4.28333C4.45553 4.28333 4.61108 4.34444 4.7333 4.46666L7.79997 7.53332C7.86664 7.59999 7.91397 7.67221 7.94197 7.74999C7.96953 7.82777 7.9833 7.9111 7.9833 7.99999C7.9833 8.08888 7.96953 8.17221 7.94197 8.24999C7.91397 8.32777 7.86664 8.39999 7.79997 8.46666L4.7333 11.5333C4.61108 11.6555 4.45819 11.7193 4.27464 11.7247C4.09153 11.7304 3.9333 11.6667 3.79997 11.5333ZM8.19997 11.5333C8.07775 11.4111 8.01664 11.2555 8.01664 11.0667C8.01664 10.8778 8.07775 10.7222 8.19997 10.6L10.7833 7.99999L8.19997 5.39999C8.07775 5.27777 8.01375 5.12488 8.00797 4.94133C8.00264 4.75821 8.06664 4.59999 8.19997 4.46666C8.32219 4.34444 8.47775 4.28333 8.66664 4.28333C8.85553 4.28333 9.01108 4.34444 9.1333 4.46666L12.2 7.53332C12.2666 7.59999 12.3137 7.67221 12.3413 7.74999C12.3693 7.82777 12.3833 7.9111 12.3833 7.99999C12.3833 8.08888 12.3693 8.17221 12.3413 8.24999C12.3137 8.32777 12.2666 8.39999 12.2 8.46666L9.1333 11.5333C9.01108 11.6555 8.85841 11.7193 8.6753 11.7247C8.49175 11.7304 8.3333 11.6667 8.19997 11.5333Z" fill="#D12B2F"/>
</g>
</svg>
